<?xml version="1.0" encoding="UTF-8"?>
<!DOCTYPE svg PUBLIC "-//W3C//DTD SVG 1.1//EN" "http://www.w3.org/Graphics/SVG/1.1/DTD/svg11.dtd">
<!-- Creator: CorelDRAW -->
<svg xmlns="http://www.w3.org/2000/svg" xml:space="preserve" width="8.4666mm" height="8.4666mm" version="1.1" style="shape-rendering:geometricPrecision; text-rendering:geometricPrecision; image-rendering:optimizeQuality; fill-rule:evenodd; clip-rule:evenodd"
viewBox="0 0 846.66 846.66"
 xmlns:xlink="http://www.w3.org/1999/xlink"
 xmlns:xodm="http://www.corel.com/coreldraw/odm/2003">
 <defs>
  <style type="text/css">
   <![CDATA[
    .fil0 {fill:#F25900;fill-rule:nonzero}
    .fil1 {fill:#242424;fill-rule:nonzero}
   ]]>
  </style>
 </defs>
 <g id="Слой_x0020_1">
  <metadata id="CorelCorpID_0Corel-Layer"/>
  <g id="_2641008613552">
   <polygon class="fil0" points="255.57,532.73 501.95,842.43 683.44,842.43 406.54,501.09 255.57,501.67 "/>
   <path class="fil1" d="M436.5 4.23c80.63,0 148.48,27.14 203.56,81.42 55.08,54.29 82.63,120.94 82.63,199.97 0,79.03 -27.55,145.69 -82.63,199.97 -55.08,54.29 -122.93,81.43 -203.56,81.43l-147.28 0 0 275.41 -165.25 0 0 -838.2 312.53 0zm0 408.32c35.12,0 64.26,-12.17 87.41,-36.52 23.15,-24.35 34.73,-54.48 34.73,-90.41 0,-36.72 -11.58,-67.05 -34.73,-91 -23.15,-23.95 -52.29,-35.92 -87.41,-35.92l-147.28 0 0 253.85 147.28 0z"/>
  </g>
 </g>
</svg>
