<?xml version="1.0" encoding="UTF-8"?>
<!DOCTYPE svg PUBLIC "-//W3C//DTD SVG 1.1//EN" "http://www.w3.org/Graphics/SVG/1.1/DTD/svg11.dtd">
<!-- Creator: CorelDRAW -->
<svg xmlns="http://www.w3.org/2000/svg" xml:space="preserve" width="43.6878mm" height="15.2398mm" version="1.1" style="shape-rendering:geometricPrecision; text-rendering:geometricPrecision; image-rendering:optimizeQuality; fill-rule:evenodd; clip-rule:evenodd"
viewBox="0 0 4368.78 1523.98"
 xmlns:xlink="http://www.w3.org/1999/xlink"
 xmlns:xodm="http://www.corel.com/coreldraw/odm/2003">
 <defs>
  <style type="text/css">
   <![CDATA[
    .fil1 {fill:#25262B;fill-rule:nonzero}
    .fil0 {fill:#25262B;fill-rule:nonzero}
    .fil2 {fill:#C82172;fill-rule:nonzero}
   ]]>
  </style>
 </defs>
 <g id="Слой_x0020_1">
  <metadata id="CorelCorpID_0Corel-Layer"/>
  <g id="_2128641015584">
   <path class="fil0" d="M1062.97 223.76l597.79 0 0 -216.96 -838.15 0 0 1092.57 505.7 0c252.85,0 407.37,-123.3 407.37,-346.5 0,-204.47 -137.35,-338.7 -383.96,-338.7l-288.75 0 0 -190.41zm263.78 390.2c113.94,0 168.57,45.26 168.57,129.55 0,95.2 -54.63,138.91 -167.01,138.91l-265.34 0 0 -268.46 263.78 0z"/>
   <path class="fil0" d="M2305.38 1099.37c151.4,0 263.77,-58.04 341.82,-152.73l-135.79 -117.59c-65.56,59.56 -123.31,83.99 -202.9,83.99 -106.15,0 -181.06,-54.98 -204.47,-160.36l582.18 0c1.56,-21.38 3.12,-42.76 3.12,-61.09 0,-232.14 -127.98,-444.42 -407.37,-444.42 -243.49,0 -413.62,192.43 -413.62,426.1 0,253.52 185.75,426.1 437.03,426.1zm-204.47 -491.77c18.74,-105.38 82.73,-174.11 181.06,-174.11 99.9,0 162.33,70.25 176.37,174.11l-357.43 0z"/>
   <polygon class="fil0" points="3519.7,262.78 2783,262.78 2783,465.68 3031.17,465.68 3031.17,1099.37 3271.54,1099.37 3271.54,465.68 3519.7,465.68 "/>
   <path class="fil1" d="M3886.49 1099.37c-82.19,0 -150.61,-22.48 -205.24,-67.44 -54.62,-44.95 -81.94,-107.27 -81.94,-186.97 0,-86.84 30.44,-152.22 91.31,-196.16 60.87,-43.93 142.81,-65.89 245.83,-65.89 69.72,0 137.87,11.23 204.47,33.71l0 -13.8c0,-100.12 -59.84,-150.18 -179.5,-150.18 -71.8,0 -148.8,14.81 -231,44.44l-59.31 -177.77c101.97,-43.94 210.19,-65.9 324.65,-65.9 125.9,0 220.08,30.65 282.51,91.95 60.35,59.25 90.52,146.62 90.52,262.06l0 491.94 -229.44 0 0 -104.21c-63.47,69.48 -147.76,104.22 -252.86,104.22zm71.81 -160.92c55.14,0 99.88,-13.53 134.23,-40.61 34.34,-27.07 51.51,-61.56 51.51,-103.45l0 -41.38c-44.75,-20.43 -95.22,-30.65 -151.4,-30.65 -52.04,0 -92.35,9.96 -120.97,29.89 -28.62,19.92 -42.92,48.79 -42.92,86.59 0,30.65 11.96,54.91 35.9,72.79 23.94,17.88 55.15,26.82 93.65,26.82z"/>
   <g>
    <path class="fil0" d="M821.56 1469.59l106.12 -234.53 24.62 0 106.12 234.53 -28.28 0 -27.28 -61.54 -126.74 0 -27.61 61.54 -26.95 0zm64.87 -85.16l106.12 0 -52.89 -118.76 -53.23 118.76zm217.89 85.16l0 -232.86 148.7 0 0 23.95 -122.42 0 0 208.91 -26.28 0zm195.94 0l0 -232.86 168.33 0 0 23.95 -142.05 0 0 79.51 127.08 0 0 23.95 -127.08 0 0 81.5 143.71 0 0 23.95 -169.99 0zm222.88 0l0 -232.86 26.28 0 0 103.46 134.4 0 0 -103.46 26.28 0 0 232.86 -26.28 0 0 -104.79 -134.4 0 0 104.79 -26.28 0zm314.37 0l0 -208.91 -78.18 0 0 -23.95 182.96 0 0 23.95 -78.17 0 0 208.91 -26.61 0zm260.46 3.99c-33.48,0 -61.32,-11.59 -83.49,-34.76 -22.18,-23.18 -33.27,-51.73 -33.27,-85.66 0,-33.49 11.2,-61.93 33.6,-85.33 22.4,-23.4 50.45,-35.09 84.16,-35.09 19.52,0 36.15,3.16 49.9,9.48 13.75,6.32 27.17,15.69 40.25,28.11l-17.29 18.63c-22.4,-21.29 -46.8,-31.94 -73.19,-31.94 -25.73,0 -47.18,9.2 -64.37,27.61 -17.19,18.41 -25.78,41.25 -25.78,68.53 0,27.06 8.65,49.84 25.95,68.36 17.29,18.52 38.7,27.78 64.2,27.78 15.08,0 28.39,-2.77 39.92,-8.32 11.53,-5.54 23.29,-13.97 35.26,-25.28l17.3 18.3c-13.09,13.08 -26.84,22.95 -41.25,29.6 -14.42,6.66 -31.71,9.98 -51.9,9.98zm200.6 -3.99l0 -208.91 -78.18 0 0 -23.95 182.96 0 0 23.95 -78.17 0 0 208.91 -26.61 0zm154.01 0l0 -232.86 99.14 0c27.27,0 47.57,6.87 60.87,20.62 9.98,10.43 14.97,23.07 14.97,37.93 0,25.28 -12.31,43.24 -36.92,53.89 33.26,9.98 49.9,28.94 49.9,56.88 0,19.74 -7.65,35.26 -22.96,46.57 -15.3,11.31 -35.81,16.97 -61.54,16.97l-103.46 0zm25.95 -23.62l78.18 0c17.74,0 31.71,-3.71 41.91,-11.14 10.2,-7.43 15.3,-17.8 15.3,-31.11 0,-12.86 -5.26,-22.73 -15.8,-29.6 -10.53,-6.88 -25.89,-10.32 -46.07,-10.32l-73.52 0 0 82.17zm0 -105.45l68.86 0c16.19,0 29.16,-3.66 38.92,-10.98 9.76,-7.32 14.64,-17.74 14.64,-31.27 0,-11.75 -4.49,-21.01 -13.47,-27.78 -8.98,-6.76 -21.68,-10.14 -38.09,-10.14l-70.86 0 0 80.17zm407.84 97.63c-22.4,23.62 -50.9,35.43 -85.49,35.43 -34.6,0 -62.99,-11.75 -85.16,-35.26 -22.18,-23.51 -33.27,-51.89 -33.27,-85.16 0,-33.05 11.2,-61.38 33.6,-85 22.4,-23.61 50.9,-35.42 85.49,-35.42 34.6,0 62.99,11.75 85.16,35.26 22.18,23.51 33.27,51.89 33.27,85.16 0,33.04 -11.2,61.37 -33.6,84.99zm-150.53 -16.8c17.41,18.63 39.31,27.95 65.7,27.95 26.39,0 48.18,-9.26 65.37,-27.78 17.19,-18.52 25.78,-41.3 25.78,-68.36 0,-26.84 -8.7,-49.57 -26.11,-68.2 -17.41,-18.63 -39.31,-27.94 -65.7,-27.94 -26.39,0 -48.18,9.26 -65.37,27.78 -17.19,18.52 -25.78,41.3 -25.78,68.36 0,26.83 8.7,49.57 26.11,68.19zm309.88 100.13l0 -75.84 23.95 0c23.51,-37.48 35.26,-93.59 35.26,-168.33l0 -40.58 152.36 0 0 208.91 30.27 0 -3.99 75.84 -21.96 0 0 -51.89 -188.95 0 -4.66 51.89 -22.28 0zm53.55 -75.84l131.74 0 0 -184.96 -100.8 0 0 30.27c0,30.61 -2.77,60.1 -8.31,88.49 -5.55,28.39 -13.09,50.45 -22.63,66.2zm222.56 26.61c-10.42,0 -20.52,-1.88 -30.27,-5.65l5.32 -21.29c4.88,2.21 11.75,3.32 20.62,3.32 4.44,0 8.43,-0.72 11.98,-2.16 3.55,-1.44 7.76,-5.43 12.64,-11.98 4.88,-6.54 8.87,-15.52 11.98,-26.94 3.1,-11.42 5.82,-28.17 8.15,-50.23 2.33,-22.07 3.49,-48.18 3.49,-78.34l0 -42.25 150.69 0 0 232.86 -26.28 0 0 -208.91 -99.13 0 0 25.28c0,31.49 -1.27,58.77 -3.82,81.84 -2.55,23.06 -5.88,41.19 -9.98,54.39 -4.11,13.19 -9.32,23.67 -15.64,31.43 -6.32,7.76 -12.53,12.81 -18.63,15.14 -6.1,2.33 -13.14,3.49 -21.12,3.49zm241.51 -2.66l72.85 -93.48c-19.29,-3.55 -34.7,-11.25 -46.24,-23.12 -11.53,-11.86 -17.29,-27.22 -17.29,-46.07 0,-19.74 5.87,-35.26 17.63,-46.57 15.74,-15.75 38.36,-23.62 67.86,-23.62l99.47 0 0 232.86 -26.28 0 0 -89.15 -66.87 0 -69.19 89.15 -31.94 0zm96.47 -111.44l71.53 0 0 -97.8 -71.53 0c-19.07,0 -33.98,4.38 -44.74,13.14 -10.76,8.76 -16.13,20.57 -16.13,35.43 0,14.85 5.65,26.77 16.96,35.76 11.31,8.98 25.95,13.47 43.91,13.47z"/>
    <path class="fil1" d="M3923.28 1469.59l0 -232.86 26.28 0 0 103.46 134.4 0 0 -103.46 26.28 0 0 232.86 -26.28 0 0 -104.79 -134.4 0 0 104.79 -26.28 0zm252.82 0l0 -232.86 100.13 0c28.61,0 50.68,7.76 66.2,23.28 11.98,11.98 17.97,27.5 17.97,46.58 0,18.63 -5.77,33.71 -17.3,45.24 -11.53,11.53 -26.84,19.07 -45.91,22.62l71.52 95.14 -32.26 0 -67.53 -90.48 -66.54 0 0 90.48 -26.28 0zm26.28 -114.1l71.53 0c17.74,0 32.15,-4.33 43.24,-12.98 11.09,-8.65 16.63,-20.51 16.63,-35.59 0,-14.42 -5.26,-25.67 -15.8,-33.77 -10.53,-8.09 -25.11,-12.14 -43.74,-12.14l-71.86 0 0 94.48z"/>
   </g>
   <path class="fil2" d="M289.14 173.73c-5.32,-4.69 -16.39,-12.11 -36.89,-17.22l1.98 72.69c27.11,-5.99 46.67,-15.37 46.67,-32.44 0,-8.27 -4.07,-16.23 -11.76,-23.03zm-30.23 227.7c26.2,1.29 49.24,-3.77 67.4,-15.29 19.28,-12.22 27.91,-28.69 27.91,-39.6 0,-5.29 0,-21.44 -29.93,-36.64 -16.81,-8.53 -40.18,-15.19 -68.4,-19.62l3.02 111.15zm15.28 -398.91c-151.44,0 -274.2,122.75 -274.2,274.2 0,119.03 75.86,220.35 181.87,258.24l-1.3 -103.94c-11.22,-4.9 -22.31,-10.44 -33.21,-16.6 -0.09,-0.06 -0.16,-0.1 -0.25,-0.15 -0.33,-0.21 -0.66,-0.42 -0.99,-0.64 -0.28,-0.18 -0.56,-0.36 -0.83,-0.54 -0.31,-0.25 -0.61,-0.48 -0.91,-0.72 -0.26,-0.22 -0.52,-0.42 -0.76,-0.64 -0.28,-0.24 -0.54,-0.52 -0.8,-0.76 -0.24,-0.24 -0.49,-0.48 -0.72,-0.75 -0.24,-0.24 -0.45,-0.52 -0.67,-0.77 -0.23,-0.27 -0.47,-0.55 -0.68,-0.84 -0.2,-0.26 -0.37,-0.54 -0.56,-0.81 -0.21,-0.3 -0.42,-0.6 -0.61,-0.92 -0.17,-0.28 -0.33,-0.56 -0.48,-0.84 -0.17,-0.34 -0.35,-0.64 -0.51,-0.97 -0.14,-0.3 -0.27,-0.6 -0.4,-0.91 -0.14,-0.33 -0.29,-0.66 -0.4,-0.99 -0.13,-0.32 -0.24,-0.65 -0.32,-0.99 -0.11,-0.32 -0.22,-0.63 -0.31,-0.97 -0.09,-0.34 -0.16,-0.69 -0.23,-1.05 -0.07,-0.32 -0.15,-0.63 -0.21,-0.95 -0.05,-0.36 -0.1,-0.73 -0.14,-1.11 -0.04,-0.31 -0.07,-0.64 -0.09,-0.94 -0.03,-0.38 -0.04,-0.75 -0.04,-1.12 -0.01,-0.32 -0.02,-0.64 -0.01,-0.97 0.01,-0.36 0.03,-0.72 0.08,-1.08 0.02,-0.34 0.04,-0.69 0.09,-1.02 0.04,-0.35 0.11,-0.68 0.17,-1.02 0.05,-0.37 0.11,-0.72 0.2,-1.1 0.07,-0.3 0.16,-0.61 0.25,-0.94 0.1,-0.38 0.21,-0.76 0.34,-1.12 0.1,-0.31 0.22,-0.61 0.33,-0.91 0.15,-0.37 0.3,-0.74 0.47,-1.11 0.04,-0.1 0.07,-0.18 0.12,-0.27 0.11,-0.24 0.24,-0.47 0.38,-0.71 0.11,-0.23 0.21,-0.48 0.34,-0.71 0.04,-0.09 0.1,-0.16 0.15,-0.25 0.21,-0.34 0.44,-0.67 0.65,-1.01 0.18,-0.27 0.35,-0.54 0.54,-0.8 0.24,-0.32 0.49,-0.63 0.73,-0.95 0.21,-0.24 0.41,-0.49 0.62,-0.73 0.25,-0.28 0.52,-0.55 0.78,-0.81 0.24,-0.24 0.48,-0.48 0.73,-0.72 0.25,-0.22 0.52,-0.45 0.78,-0.66 0.28,-0.24 0.55,-0.47 0.84,-0.67 0.26,-0.21 0.53,-0.39 0.8,-0.58 0.31,-0.19 0.6,-0.41 0.92,-0.6 0.28,-0.17 0.56,-0.32 0.85,-0.47 0.32,-0.19 0.64,-0.36 0.97,-0.53 0.3,-0.14 0.59,-0.26 0.91,-0.39 0.32,-0.14 0.64,-0.28 0.98,-0.41 0.32,-0.12 0.65,-0.22 0.99,-0.32 0.31,-0.1 0.63,-0.22 0.97,-0.3 0.35,-0.09 0.71,-0.17 1.06,-0.25 0.32,-0.06 0.63,-0.13 0.94,-0.18 0.38,-0.06 0.75,-0.11 1.13,-0.15 0.31,-0.03 0.63,-0.08 0.93,-0.1 0.37,-0.03 0.75,-0.03 1.13,-0.03 0.32,0 0.63,-0.01 0.95,-0.01 0.37,0.01 0.74,0.04 1.1,0.07 0.34,0.03 0.68,0.04 1.01,0.09 0.34,0.06 0.69,0.11 1.02,0.17 0.36,0.07 0.72,0.13 1.08,0.21 0.32,0.06 0.63,0.17 0.95,0.25 0.39,0.1 0.76,0.21 1.13,0.35 0.31,0.09 0.61,0.21 0.9,0.33 0.37,0.14 0.76,0.29 1.13,0.47 0.08,0.04 0.17,0.05 0.26,0.09 4.3,2.04 8.57,3.92 12.82,5.71l-2.9 -230.27c-8.38,0.53 -17.33,1.36 -26.89,2.55 -11.8,1.46 -22.55,-6.91 -24.02,-18.72 -1.46,-11.81 6.92,-22.55 18.73,-24.01 2.03,-0.26 4.02,-0.49 6.01,-0.72 8.78,-1.01 17.33,-1.82 25.63,-2.42l-0.18 -13.86c-0.25,-20.48 16.15,-37.32 36.64,-37.57l0.48 0c20.27,0 36.84,16.32 37.09,36.64l0.42 15.28c38.63,4.12 68.39,14.87 87.91,32.13 16.77,14.81 25.62,34.11 25.62,55.82 0,13.67 -4.03,32.6 -21.96,49.19 35.15,7.35 70.78,20.61 94.62,44.2 17.05,16.88 26.06,37.73 26.06,60.32 0,32.43 -19.61,62.48 -53.82,82.44 -28.32,16.51 -65.16,25.41 -104.75,25.41 -3.81,0 -7.66,-0.08 -11.53,-0.25 -10.83,-0.47 -21.77,-1.58 -32.75,-3.34l2.61 95.95c3.72,0.15 7.46,0.25 11.22,0.25 151.44,0 274.2,-122.76 274.2,-274.2 0,-151.45 -122.76,-274.2 -274.2,-274.2z"/>
  </g>
 </g>
</svg>
